<svg xmlns="http://www.w3.org/2000/svg" viewBox="0 0 128 128" width="128" height="128">
  <defs>
    <linearGradient id="bg" x1="0%" y1="0%" x2="100%" y2="100%">
      <stop offset="0%" stop-color="#93C5FD"/>
      <stop offset="100%" stop-color="#3B82F6"/>
    </linearGradient>
  </defs>
  <circle cx="64" cy="64" r="64" fill="url(#bg)"/>
  <g transform="translate(64,64)" fill="white" opacity="0.95">
    <!-- Dove/peace bird -->
    <path d="M-8,-20 C-8,-20 -20,-10 -22,2 C-24,14 -16,18 -10,18 C-4,18 0,14 0,14 C0,14 4,18 10,18 C16,18 24,14 22,2 C20,-10 8,-20 8,-20 C8,-20 4,-14 0,-14 C-4,-14 -8,-20 -8,-20Z" transform="scale(1.1)"/>
    <!-- Wing detail -->
    <path d="M-26,4 C-32,-2 -30,-12 -24,-16 M26,4 C32,-2 30,-12 24,-16" stroke="white" stroke-width="2" fill="none" opacity="0.6"/>
    <!-- Olive branch -->
    <ellipse cx="0" cy="22" rx="2" ry="6" fill="white" opacity="0.7" transform="rotate(-10)"/>
  </g>
</svg>
