<svg xmlns="http://www.w3.org/2000/svg" viewBox="0 0 128 128" width="128" height="128">
  <defs>
    <linearGradient id="bg" x1="0%" y1="0%" x2="100%" y2="100%">
      <stop offset="0%" stop-color="#F472B6"/>
      <stop offset="100%" stop-color="#BE185D"/>
    </linearGradient>
  </defs>
  <circle cx="64" cy="64" r="64" fill="url(#bg)"/>
  <g transform="translate(64,64)" fill="white" opacity="0.95">
    <!-- Two connected figures / handshake -->
    <!-- Left hand -->
    <path d="M-24,8 L-10,8 L-10,-2 C-10,-6 -8,-8 -4,-8 L0,-8 L0,2 L-4,2 C-6,2 -6,4 -4,4 L4,4 C8,4 10,2 10,-2 L10,-8 C14,-8 16,-6 16,-2 L16,8 L24,8 L24,14 L-24,14Z"/>
    <!-- Connection arcs -->
    <circle cx="-14" cy="-18" r="8" fill="white" opacity="0.6"/>
    <circle cx="14" cy="-18" r="8" fill="white" opacity="0.6"/>
    <!-- Link symbol -->
    <path d="M-4,-18 L4,-18" stroke="white" stroke-width="3" stroke-linecap="round"/>
  </g>
</svg>
