<svg xmlns="http://www.w3.org/2000/svg" viewBox="0 0 128 128" width="128" height="128">
  <defs>
    <linearGradient id="bg" x1="0%" y1="0%" x2="100%" y2="100%">
      <stop offset="0%" stop-color="#6366F1"/>
      <stop offset="100%" stop-color="#312E81"/>
    </linearGradient>
  </defs>
  <circle cx="64" cy="64" r="64" fill="url(#bg)"/>
  <g transform="translate(64,66)" fill="white" opacity="0.95">
    <!-- Chess knight piece -->
    <path d="M-14,22 L14,22 L12,14 C12,14 16,8 16,0 C16,-8 12,-14 8,-18 C4,-22 2,-26 2,-30 L-6,-30 C-6,-26 -8,-22 -8,-18 L-12,-14 C-12,-14 -6,-10 -6,-6 C-6,-2 -10,2 -14,4 C-18,6 -18,14 -14,22Z"/>
    <!-- Eye of knight -->
    <circle cx="2" cy="-16" r="2.5" fill="#312E81"/>
    <!-- Base -->
    <rect x="-16" y="22" width="32" height="4" rx="2" fill="white" opacity="0.7"/>
  </g>
</svg>
