<svg xmlns="http://www.w3.org/2000/svg" viewBox="0 0 128 128" width="128" height="128">
  <defs>
    <linearGradient id="bg" x1="0%" y1="0%" x2="100%" y2="100%">
      <stop offset="0%" stop-color="#A855F7"/>
      <stop offset="50%" stop-color="#EC4899"/>
      <stop offset="100%" stop-color="#6D28D9"/>
    </linearGradient>
  </defs>
  <circle cx="64" cy="64" r="64" fill="url(#bg)"/>
  <g transform="translate(64,64)" fill="white" opacity="0.95">
    <!-- Joker / question card -->
    <rect x="-16" y="-28" width="32" height="56" rx="4" fill="white" opacity="0.15" stroke="white" stroke-width="2"/>
    <!-- Question mark -->
    <path d="M-6,-14 C-6,-20 -2,-22 2,-22 C6,-22 10,-18 10,-14 C10,-8 4,-8 2,-4 L2,0" stroke="white" stroke-width="4" fill="none" stroke-linecap="round"/>
    <circle cx="2" cy="8" r="3" fill="white"/>
    <!-- Sparkles -->
    <g fill="white" opacity="0.5">
      <circle cx="-22" cy="-18" r="2"/>
      <circle cx="22" cy="-20" r="1.5"/>
      <circle cx="-20" cy="14" r="1.5"/>
      <circle cx="20" cy="16" r="2"/>
      <path d="M-24,0 L-22,-3 L-20,0 L-22,3Z"/>
      <path d="M24,-6 L26,-9 L28,-6 L26,-3Z"/>
    </g>
  </g>
</svg>
